<svg width="50" height="50" viewBox="0 0 50 50" fill="none" xmlns="http://www.w3.org/2000/svg">
<circle cx="25" cy="25" r="24.5" fill="#A2E877" stroke="black"/>
<path d="M11.3744 37.5H38.6364M18.9472 19.2885V37.5M35.6073 28.3943C34.8039 28.3943 34.0334 28.0745 33.4654 27.5053C32.8973 26.9361 32.5782 26.164 32.5782 25.359V20.8062C32.5782 20.0012 32.8973 19.2291 33.4654 18.6599C34.0334 18.0907 34.8039 17.7709 35.6073 17.7709C36.4106 17.7709 37.1811 18.0907 37.7492 18.6599C38.3172 19.2291 38.6364 20.0012 38.6364 20.8062V25.359C38.6364 26.164 38.3172 26.9361 37.7492 27.5053C37.1811 28.0745 36.4106 28.3943 35.6073 28.3943ZM35.6073 28.3943V37.5M26.52 18.5297C26.5209 17.4995 26.2219 16.4913 25.6597 15.6287C25.0974 14.7662 24.2964 14.0866 23.3545 13.6733C23.1083 12.6889 22.5409 11.8151 21.7424 11.1907C20.9439 10.5664 19.96 10.2273 18.9472 10.2273C17.9344 10.2273 16.9505 10.5664 16.152 11.1907C15.3535 11.8151 14.7861 12.6889 14.5399 13.6733C13.596 14.085 12.7927 14.7638 12.2284 15.6266C11.6642 16.4893 11.3636 17.4983 11.3636 18.5297C11.3636 19.5612 11.6642 20.5702 12.2284 21.4329C12.7927 22.2956 13.596 22.9745 14.5399 23.3861C14.7861 24.3706 15.3535 25.2444 16.152 25.8687C16.9505 26.4931 17.9344 26.8322 18.9472 26.8322C19.96 26.8322 20.9439 26.4931 21.7424 25.8687C22.5409 25.2444 23.1083 24.3706 23.3545 23.3861C24.2964 22.9728 25.0974 22.2933 25.6597 21.4307C26.2219 20.5681 26.5209 19.56 26.52 18.5297Z" stroke="black" stroke-width="2" stroke-linecap="round" stroke-linejoin="round"/>
</svg>
