<svg width="55" height="55" viewBox="0 0 55 55" fill="none" xmlns="http://www.w3.org/2000/svg">
<path d="M10.3125 22.9167V18.3333C10.3125 17.1178 10.7954 15.952 11.6549 15.0924C12.5145 14.2329 13.6803 13.75 14.8958 13.75H16.759M10.3125 22.9167V43.5417C10.3125 44.7572 10.7954 45.923 11.6549 46.7826C12.5145 47.6421 13.6803 48.125 14.8958 48.125H40.1042C41.3197 48.125 42.4855 47.6421 43.3451 46.7826C44.2046 45.923 44.6875 44.7572 44.6875 43.5417V22.9167M10.3125 22.9167H44.6875M44.6875 22.9167V18.3333C44.6875 17.1178 44.2046 15.952 43.3451 15.0924C42.4855 14.2329 41.3197 13.75 40.1042 13.75H37.1685M37.1685 13.75H16.7567V6.875M37.1685 13.75V6.875M18.3333 32.0833H36.6667" stroke="black" stroke-width="2" stroke-linecap="round" stroke-linejoin="round"/>
</svg>
