<svg width="55" height="55" viewBox="0 0 55 55" fill="none" xmlns="http://www.w3.org/2000/svg">
<path d="M27.4999 50.4167C40.1564 50.4167 50.4166 40.1565 50.4166 27.5C50.4166 14.8435 40.1564 4.58333 27.4999 4.58333C14.8434 4.58333 4.58325 14.8435 4.58325 27.5C4.58325 40.1565 14.8434 50.4167 27.4999 50.4167Z" stroke="black" stroke-width="2"/>
<path fill-rule="evenodd" clip-rule="evenodd" d="M25.3551 16.5619C25.3541 16.6599 25.3208 16.7548 25.2602 16.8319C25.1997 16.909 25.1155 16.9639 25.0205 16.9881C23.9297 17.2769 22.9374 17.7902 22.1238 18.606C20.7213 20.0063 20.208 21.9358 20.208 23.9823C20.208 25.0296 20.4486 25.999 20.9826 26.8446C21.5097 27.6787 22.2316 28.2425 22.9626 28.6275C24.3032 29.3333 25.9601 29.5671 27.1563 29.7344L27.2022 29.739C28.6184 29.9383 29.5351 30.0712 30.1493 30.3531C30.25 30.3943 30.3441 30.4499 30.4288 30.5181C30.4505 30.5379 30.4664 30.5633 30.4747 30.5915C30.4965 30.6736 30.5058 30.7586 30.5022 30.8435C30.5022 31.8473 30.2043 32.576 29.7826 33.0321C29.3907 33.4583 28.7078 33.8479 27.5001 33.8479C26.1159 33.8479 25.4697 33.5042 25.1557 33.1902C25.0739 33.1069 25.0016 33.0146 24.9403 32.9152C24.3078 31.916 23.5378 30.8458 22.3507 30.8458C21.1682 30.8458 20.1713 31.8175 20.4211 32.9771C20.6893 34.2031 21.2232 35.3215 22.1238 36.2221C22.9374 37.0379 23.9297 37.5512 25.0205 37.84C25.1155 37.8642 25.1997 37.9192 25.2602 37.9963C25.3208 38.0733 25.3541 38.1683 25.3551 38.2662V39.0408C25.3551 39.3225 25.4106 39.6014 25.5184 39.8617C25.6262 40.1219 25.7842 40.3584 25.9833 40.5576C26.1825 40.7568 26.419 40.9148 26.6792 41.0226C26.9395 41.1304 27.2184 41.1858 27.5001 41.1858C27.7818 41.1858 28.0607 41.1304 28.3209 41.0226C28.5812 40.9148 28.8177 40.7568 29.0168 40.5576C29.216 40.3584 29.374 40.1219 29.4818 39.8617C29.5896 39.6014 29.6451 39.3225 29.6451 39.0408V38.209C29.6451 38.0119 29.778 37.8423 29.9659 37.785C31.1044 37.4469 32.131 36.809 32.9382 35.9379C34.2353 34.5308 34.7945 32.686 34.7945 30.8458C34.7945 29.8237 34.5286 28.8727 33.9534 28.0615C33.4334 27.3548 32.7351 26.7989 31.9299 26.4504C30.713 25.8935 29.2028 25.685 28.0684 25.5292L27.798 25.4925C26.4276 25.3 25.5338 25.1327 24.9609 24.8302C24.8208 24.7707 24.699 24.675 24.608 24.5529C24.5782 24.5048 24.498 24.3581 24.498 23.9823C24.498 22.5981 24.8418 21.9519 25.1557 21.6379C25.4697 21.324 26.1159 20.9802 27.5001 20.9802C28.8843 20.9802 29.5305 21.324 29.8445 21.6379C29.9155 21.709 29.9888 21.7983 30.0599 21.9106C30.6947 22.9121 31.4624 23.9823 32.6495 23.9823C33.832 23.9823 34.8288 23.0106 34.5791 21.851C34.3132 20.625 33.777 19.5067 32.8763 18.606C32.073 17.8171 31.0727 17.2584 29.9797 16.9881C29.8847 16.9639 29.8004 16.909 29.7399 16.8319C29.6794 16.7548 29.6461 16.6599 29.6451 16.5619V15.9569C29.6451 15.388 29.4191 14.8424 29.0168 14.4401C28.6146 14.0379 28.069 13.8119 27.5001 13.8119C26.9312 13.8119 26.3856 14.0379 25.9833 14.4401C25.5811 14.8424 25.3551 15.388 25.3551 15.9569V16.5619Z" fill="black"/>
</svg>
