<svg width="55" height="55" viewBox="0 0 55 55" fill="none" xmlns="http://www.w3.org/2000/svg">
<path d="M13.75 11.4583V45.8333M27.5 11.4583V45.8333M41.25 11.4583V45.8333" stroke="black" stroke-width="2" stroke-linecap="round"/>
<path d="M19.4791 36.6667C19.4791 38.1861 18.8755 39.6434 17.8011 40.7178C16.7266 41.7922 15.2694 42.3958 13.7499 42.3958C12.2304 42.3958 10.7732 41.7922 9.69879 40.7178C8.62436 39.6434 8.02075 38.1861 8.02075 36.6667C8.02075 35.1472 8.62436 33.69 9.69879 32.6155C10.7732 31.5411 12.2304 30.9375 13.7499 30.9375C15.2694 30.9375 16.7266 31.5411 17.8011 32.6155C18.8755 33.69 19.4791 35.1472 19.4791 36.6667ZM33.2291 20.625C33.2291 22.1445 32.6255 23.6017 31.5511 24.6761C30.4766 25.7506 29.0194 26.3542 27.4999 26.3542C25.9804 26.3542 24.5232 25.7506 23.4488 24.6761C22.3744 23.6017 21.7708 22.1445 21.7708 20.625C21.7708 19.1055 22.3744 17.6483 23.4488 16.5739C24.5232 15.4994 25.9804 14.8958 27.4999 14.8958C29.0194 14.8958 30.4766 15.4994 31.5511 16.5739C32.6255 17.6483 33.2291 19.1055 33.2291 20.625ZM46.9791 36.6667C46.9791 38.1861 46.3755 39.6434 45.301 40.7178C44.2266 41.7922 42.7694 42.3958 41.2499 42.3958C39.7304 42.3958 38.2732 41.7922 37.1988 40.7178C36.1244 39.6434 35.5208 38.1861 35.5208 36.6667C35.5208 35.1472 36.1244 33.69 37.1988 32.6155C38.2732 31.5411 39.7304 30.9375 41.2499 30.9375C42.7694 30.9375 44.2266 31.5411 45.301 32.6155C46.3755 33.69 46.9791 35.1472 46.9791 36.6667Z" fill="black"/>
</svg>
