<svg width="108" height="98" viewBox="0 0 108 98" fill="none" xmlns="http://www.w3.org/2000/svg">
<circle cx="49" cy="49" r="45" fill="#1ED760"/>
<circle cx="48.6853" cy="48.6853" r="45.4615" stroke="black" stroke-width="6"/>
<circle cx="49" cy="49" r="36.7063" stroke="black" stroke-width="4"/>
<path d="M48.6828 69.3333V47.3053M44.2772 69.3333H53.0883M59.124 49.8826C59.4956 50.815 59.6899 51.8086 59.6967 52.8123C59.6967 54.8571 58.8845 56.8181 57.4386 58.2639C55.9927 59.7098 54.0317 60.5221 51.9869 60.5221C50.8415 60.5174 49.712 60.2538 48.6828 59.7511C47.6535 60.2538 46.524 60.5174 45.3786 60.5221C43.3338 60.5221 41.3728 59.7098 39.9269 58.2639C38.481 56.8181 37.6688 54.8571 37.6688 52.8123C37.6756 51.8086 37.8699 50.815 38.2415 49.8826C37.2369 49.0497 36.4616 47.9741 35.989 46.7577C35.5163 45.5413 35.3621 44.2244 35.5407 42.9318C35.7194 41.6391 36.2251 40.4134 37.01 39.3709C37.7949 38.3283 38.8329 37.5034 40.0258 36.9742C40.408 34.958 41.482 33.1384 43.0624 31.8294C44.6429 30.5205 46.6306 29.8042 48.6828 29.8042C50.7349 29.8042 52.7226 30.5205 54.3031 31.8294C55.8835 33.1384 56.9575 34.958 57.3397 36.9742C58.5326 37.5034 59.5706 38.3283 60.3555 39.3709C61.1404 40.4134 61.6461 41.6391 61.8248 42.9318C62.0035 44.2244 61.8492 45.5413 61.3765 46.7577C60.9039 47.9741 60.1286 49.0497 59.124 49.8826Z" stroke="black" stroke-width="4" stroke-linecap="round" stroke-linejoin="round"/>
</svg>
