<svg width="26" height="26" viewBox="0 0 26 26" fill="none" xmlns="http://www.w3.org/2000/svg">
<path d="M13 26C20.1797 26 26 20.1797 26 13C26 5.8203 20.1797 0 13 0C5.8203 0 0 5.8203 0 13C0 20.1797 5.8203 26 13 26Z" fill="white"/>
<path d="M20.7677 14.0464V19.406H17.6603V14.4056C17.6603 13.15 17.2116 12.2926 16.0866 12.2926C15.228 12.2926 14.7179 12.8698 14.4927 13.4288C14.4109 13.6286 14.3898 13.9059 14.3898 14.1861V19.4058H11.2822C11.2822 19.4058 11.3239 10.9367 11.2822 10.06H14.39V11.3844C14.3838 11.3948 14.3749 11.405 14.3694 11.415H14.39V11.3844C14.803 10.749 15.5394 9.84057 17.1906 9.84057C19.2349 9.84057 20.7677 11.1763 20.7677 14.0464ZM8.03137 5.55505C6.96839 5.55505 6.27295 6.25282 6.27295 7.16957C6.27295 8.06685 6.94823 8.78478 7.99059 8.78478H8.01075C9.09458 8.78478 9.76847 8.06685 9.76847 7.16957C9.74785 6.25282 9.09458 5.55505 8.03137 5.55505ZM6.45764 19.406H9.56408V10.06H6.45764V19.406Z" fill="#000923"/>
</svg>
