<svg width="26" height="26" viewBox="0 0 26 26" fill="none" xmlns="http://www.w3.org/2000/svg">
<path d="M13 26C20.1797 26 26 20.1797 26 13C26 5.8203 20.1797 0 13 0C5.8203 0 0 5.8203 0 13C0 20.1797 5.8203 26 13 26Z" fill="white"/>
<path fill-rule="evenodd" clip-rule="evenodd" d="M5.96243 12.0269C9.72052 10.0512 12.2265 8.74867 13.4804 8.11936C17.0604 6.32254 17.8043 6.01042 18.2892 6.00011C18.3958 5.99784 18.6343 6.02973 18.7887 6.18096C18.9192 6.30866 18.955 6.48116 18.9722 6.60223C18.9894 6.7233 19.0108 6.9991 18.9938 7.2146C18.7998 9.6743 17.9603 15.6433 17.5332 18.3983C17.3525 19.564 16.9967 19.9548 16.6522 19.9931C15.9036 20.0762 15.3351 19.3961 14.6101 18.8225C13.4755 17.9251 12.8345 17.3664 11.7332 16.4907C10.4604 15.4786 11.2855 14.9223 12.0108 14.0132C12.2006 13.7753 15.4991 10.1551 15.5629 9.82668C15.5709 9.7856 15.5783 9.6325 15.503 9.55166C15.4276 9.47081 15.3163 9.49846 15.236 9.52045C15.1223 9.55161 13.3097 10.9972 9.79841 13.8573C9.28392 14.2836 8.81791 14.4913 8.40039 14.4804C7.9401 14.4684 7.05469 14.1664 6.39648 13.9082C5.58916 13.5915 4.94752 13.4241 5.00339 12.8863C5.03249 12.6062 5.35217 12.3197 5.96243 12.0269Z" fill="#000923"/>
</svg>
