<svg width="26" height="26" viewBox="0 0 26 26" fill="none" xmlns="http://www.w3.org/2000/svg">
<path d="M16.8746 6.91724H9.12539C7.88851 6.91724 6.8822 7.92354 6.8822 9.16042V16.9096C6.8822 18.1465 7.88851 19.1531 9.12539 19.1531H16.8746C18.1115 19.1531 19.1181 18.1468 19.1181 16.9096V9.16042C19.1181 7.92354 18.1118 6.91724 16.8746 6.91724ZM13 17.0631C10.7791 17.0631 8.97215 15.2562 8.97215 13.035C8.97215 10.8141 10.7791 9.00719 13 9.00719C15.2212 9.00719 17.0281 10.8141 17.0281 13.035C17.0281 15.2559 15.2209 17.0631 13 17.0631ZM17.1576 9.83998C16.6318 9.83998 16.2043 9.41243 16.2043 8.88698C16.2043 8.36152 16.6318 7.93397 17.1576 7.93397C17.683 7.93397 18.1106 8.36152 18.1106 8.88698C18.1106 9.41243 17.683 9.83998 17.1576 9.83998Z" fill="white"/>
<path d="M12.9997 10.7092C11.7177 10.7092 10.6737 11.7526 10.6737 13.0347C10.6737 14.3173 11.7177 15.361 12.9997 15.361C14.2824 15.361 15.3255 14.3173 15.3255 13.0347C15.3255 11.7529 14.2821 10.7092 12.9997 10.7092Z" fill="white"/>
<path d="M13 0C5.82058 0 0 5.82058 0 13C0 20.1794 5.82058 26 13 26C20.1794 26 26 20.1794 26 13C26 5.82058 20.1794 0 13 0ZM20.8199 16.9096C20.8199 19.0853 19.0503 20.8549 16.8746 20.8549H9.1254C6.95 20.8549 5.18013 19.0853 5.18013 16.9096V9.16045C5.18013 6.98505 6.95 5.21518 9.1254 5.21518H16.8746C19.0503 5.21518 20.8199 6.98505 20.8199 9.16045V16.9096Z" fill="white"/>
</svg>
